:SAMPLES-PER-SECOND 30
:FULLY-SPECIFIED
:DEGREES
285
root  -33.1112 34.4046 3.42228 -171.368 82.8936 -179.906
RightUpLeg  -10.7565 -7.18199 -1.28878
RightLeg  13.5888 9.15474 1.5933
RightFoot  -0.206421 -0.00101692 0.0478247
RightToes  -32.0258 -0.157714 -0.266688
Spine  -2.75274 -0.713903 0.408662
Spine1  -5.27341 -1.49459 1.5362
HEad  -69.3471 -0.0197814 10.439
LeftShoulder1  -1.94126e-019 -3.10601e-018 -2.51263e-017
LeftArm  -35.7129 35.0199 -83.0433
LeftForeArm  15.556 -7.86241 -1.37935
LeftHand  -0.307406 1.71575 9.58187
RightShoulder  -4.96962e-017 0 -2.36833e-017
RightArm  -49.9203 -32.8905 75.4651
RightForeArm  55.48 6.31637 1.08101
RightHand  -0.11871 -3.55563 -6.5687
LeftUpLeg  -11.1617 4.26469 -1.06024
LeftLeg  13.2048 13.9108 2.30766
LeftFoot  1.06388 -0.00227365 0.406467
LeftToes  -17.5982 1.89912e-006 4.45198e-008
286
root  -33.0443 34.3337 3.41793 -170.676 83.1914 -179.372
RightUpLeg  -11.2834 -7.11945 -1.23504
RightLeg  14.4798 9.35734 1.77762
RightFoot  -0.623121 -0.00299998 -0.0271686
RightToes  -32.295 -0.157603 -0.266728
Spine  -2.97827 -0.727112 0.442546
Spine1  -5.53909 -1.50548 1.59276
HEad  -69.2811 0.885794 10.8847
LeftShoulder1  -1.94126e-019 -3.10601e-018 -2.51263e-017
LeftArm  -39.4843 38.9917 -84.5481
LeftForeArm  12.0345 -8.05367 -1.41308
LeftHand  -0.28242 2.21562 10.109
RightShoulder  -4.96962e-017 0 -2.36833e-017
RightArm  -50.7708 -36.4253 75.9295
RightForeArm  54.1516 7.06651 1.21563
RightHand  -0.134881 -3.53798 -7.56509
LeftUpLeg  -11.7718 4.43864 -1.01545
LeftLeg  14.4607 13.9674 2.62898
LeftFoot  0.362399 -0.000233453 0.235447
LeftToes  -17.6563 1.89912e-006 4.45198e-008
287
root  -32.9911 34.2783 3.41849 -170.249 83.4075 -179.034
RightUpLeg  -11.6406 -6.9873 -1.20659
RightLeg  15.1571 9.42365 1.90501
RightFoot  -1.01282 -0.0053511 -0.0977895
RightToes  -32.1684 -0.157485 -0.266751
Spine  -3.19266 -0.704869 0.454976
Spine1  -5.79292 -1.44279 1.60194
HEad  -68.2511 1.24049 11.3813
LeftShoulder1  -1.94126e-019 -3.10601e-018 -2.51263e-017
LeftArm  -41.7349 41.6759 -85.6156
LeftForeArm  10.3565 -7.1567 -1.25361
LeftHand  -0.264385 2.66937 10.9659
RightShoulder  -4.96962e-017 0 -2.36833e-017
RightArm  -50.8812 -39.0845 76.1744
RightForeArm  54.4532 7.13175 1.22664
RightHand  -0.133978 -3.79111 -8.66976
LeftUpLeg  -12.2044 4.60462 -0.98555
LeftLeg  15.4124 13.9696 2.86755
LeftFoot  -0.14725 -6.62845e-005 0.109783
LeftToes  -17.6743 1.89912e-006 4.45198e-008
288
root  -32.9526 34.2373 3.41844 -170.087 83.4154 -178.874
RightUpLeg  -11.8245 -6.98025 -1.18889
RightLeg  15.6611 9.39538 1.98492
RightFoot  -1.28526 -0.00727663 -0.146748
RightToes  -32.1435 -0.157361 -0.266584
Spine  -3.37282 -0.720448 0.464325
Spine1  -6.01168 -1.45897 1.61163
HEad  -66.8759 1.17158 11.672
LeftShoulder1  -1.94126e-019 -3.10601e-018 -2.51263e-017
LeftArm  -41.9238 43.1424 -86.0836
LeftForeArm  10.0209 -5.42581 -0.949091
LeftHand  -0.226876 3.225 11.6768
RightShoulder  -4.96962e-017 0 -2.36833e-017
RightArm  -51.3166 -40.7524 76.1377
RightForeArm  55.1581 6.42708 1.10129
RightHand  -0.112684 -4.18012 -9.30102
LeftUpLeg  -12.4624 4.48576 -0.958011
LeftLeg  16.0896 14.0667 3.05861
LeftFoot  -0.497971 -0.000608979 0.021363
LeftToes  -17.5785 1.89912e-006 4.45198e-008
289
root  -32.9218 34.2118 3.41452 -170.235 83.397 -178.979
RightUpLeg  -11.8957 -6.89339 -1.20852
RightLeg  16.017 9.26644 2.01768
RightFoot  -1.48453 -0.00879699 -0.179068
RightToes  -32.0351 -0.157233 -0.266459
Spine  -3.47588 -0.721291 0.463776
Spine1  -6.12432 -1.45374 1.60145
HEad  -65.737 0.917769 11.7869
LeftShoulder1  -1.94126e-019 -3.10601e-018 -2.51263e-017
LeftArm  -40.3908 43.5497 -86.065
LeftForeArm  11.0732 -3.4208 -0.598921
LeftHand  -0.185856 3.7118 12.1243
RightShoulder  -4.96962e-017 0 -2.36833e-017
RightArm  -52.7892 -41.3443 75.8156
RightForeArm  56.5751 5.10381 0.866058
RightHand  -0.0825101 -4.56568 -9.16699
LeftUpLeg  -12.5725 4.38089 -0.96599
LeftLeg  16.5195 14.1356 3.18315
LeftFoot  -0.705429 -0.0011957 -0.0327153
LeftToes  -17.387 1.89912e-006 4.45198e-008
290
root  -32.8868 34.2025 3.40907 -170.245 83.2742 -178.932
RightUpLeg  -11.8086 -7.02333 -1.2021
RightLeg  16.112 9.25248 2.03063
RightFoot  -1.55899 -0.00877174 -0.192432
RightToes  -31.9445 -0.157099 -0.266353
Spine  -3.50053 -0.725365 0.478946
Spine1  -6.14227 -1.45719 1.62778
HEad  -64.9881 0.578062 11.6675
LeftShoulder1  -1.94126e-019 -3.10601e-018 -2.51263e-017
LeftArm  -38.1736 43.381 -85.9236
LeftForeArm  13.109 -2.24694 -0.395898
LeftHand  -0.146882 4.10818 12.2246
RightShoulder  -4.96962e-017 0 -2.36833e-017
RightArm  -53.8722 -41.2211 75.4074
RightForeArm  57.7516 3.91938 0.656693
RightHand  -0.0405191 -5.12174 -8.94051
LeftUpLeg  -12.54 4.31399 -0.943002
LeftLeg  16.6605 14.075 3.20577
LeftFoot  -0.796223 -0.000416918 -0.0552858
LeftToes  -17.3758 1.89912e-006 4.45198e-008
291
root  -32.8649 34.2089 3.40477 -170.356 83.119 -179.032
RightUpLeg  -11.6429 -7.05699 -1.21546
RightLeg  15.926 9.16492 1.98063
RightFoot  -1.54356 -0.00869046 -0.18537
RightToes  -31.6773 -0.156962 -0.266266
Spine  -3.47891 -0.705909 0.485618
Spine1  -6.13283 -1.4204 1.6429
HEad  -64.5011 0.225514 11.4601
LeftShoulder1  -1.94126e-019 -3.10601e-018 -2.51263e-017
LeftArm  -36.8655 42.9289 -85.6742
LeftForeArm  16.1104 -2.26776 -0.400583
LeftHand  -0.147027 4.06425 11.8179
RightShoulder  -4.96962e-017 0 -2.36833e-017
RightArm  -53.9061 -40.6747 75.2304
RightForeArm  58.7645 3.51469 0.584506
RightHand  -0.00891613 -5.56449 -8.65191
LeftUpLeg  -12.4492 4.33275 -0.942538
LeftLeg  16.5226 13.9274 3.13802
LeftFoot  -0.759445 -0.000196841 -0.0438008
LeftToes  -17.2207 1.89912e-006 4.45198e-008
292
root  -32.8487 34.2281 3.40116 -170.42 82.8602 -179.101
RightUpLeg  -11.418 -7.38426 -1.20363
RightLeg  15.5778 9.22609 1.93554
RightFoot  -1.40297 -0.00810625 -0.16004
RightToes  -31.711 -0.156821 -0.266196
Spine  -3.40155 -0.679977 0.497533
Spine1  -6.06176 -1.35899 1.6713
HEad  -64.329 -0.139644 11.082
LeftShoulder1  -1.94126e-019 -3.10601e-018 -2.51263e-017
LeftArm  -35.5532 42.2846 -85.3133
LeftForeArm  18.5169 -3.64439 -0.641277
LeftHand  -0.173834 3.68989 11.1033
RightShoulder  -4.96962e-017 0 -2.36833e-017
RightArm  -52.9645 -39.6907 75.302
RightForeArm  60.037 3.85569 0.64099
RightHand  -0.032659 -5.22591 -8.4149
LeftUpLeg  -12.2993 4.10392 -0.927111
LeftLeg  16.1932 13.9274 3.05503
LeftFoot  -0.589142 -0.000828596 0.000341127
LeftToes  -17.2766 1.89912e-006 4.45198e-008
293
root  -32.8409 34.2562 3.39836 -170.34 82.6183 -179.096
RightUpLeg  -11.1722 -7.53865 -1.18124
RightLeg  15.002 9.18231 1.83094
RightFoot  -1.11395 -0.00596056 -0.104706
RightToes  -31.7636 -0.156676 -0.266143
Spine  -3.3064 -0.622365 0.492569
Spine1  -5.98929 -1.23371 1.66684
HEad  -64.311 -0.419436 10.7635
LeftShoulder1  -1.94126e-019 -3.10601e-018 -2.51263e-017
LeftArm  -34.6717 41.3757 -84.7259
LeftForeArm  19.717 -5.80909 -1.02
LeftHand  -0.228274 2.88415 10.1728
RightShoulder  -4.96962e-017 0 -2.36833e-017
RightArm  -49.852 -38.5508 75.6524
RightForeArm  60.4269 5.26203 0.885632
RightHand  -0.0989556 -4.19938 -8.01313
LeftUpLeg  -12.1761 4.0617 -0.911703
LeftLeg  15.7373 13.7542 2.90466
LeftFoot  -0.352144 -0.000301609 0.0633262
LeftToes  -17.3332 1.89912e-006 4.45198e-008
294
root  -32.8346 34.2984 3.3981 -170.247 82.2634 -179.122
RightUpLeg  -10.8128 -7.81586 -1.1395
RightLeg  14.1355 9.14315 1.68078
RightFoot  -0.73103 -0.00355957 -0.0346711
RightToes  -31.8153 -0.156529 -0.266107
Spine  -3.17189 -0.586105 0.46734
Spine1  -5.87361 -1.16052 1.62811
HEad  -64.4377 -0.699567 10.5588
LeftShoulder1  -1.94126e-019 -3.10601e-018 -2.51263e-017
LeftArm  -33.8839 39.9307 -83.9643
LeftForeArm  20.393 -8.18047 -1.43884
LeftHand  -0.264018 2.11559 9.14623
RightShoulder  -4.96962e-017 0 -2.36833e-017
RightArm  -45.6787 -37.1221 76.0749
RightForeArm  59.8027 7.25911 1.23801
RightHand  -0.162718 -3.13153 -7.73243
LeftUpLeg  -11.9657 3.97968 -0.88747
LeftLeg  14.9677 13.5279 2.67066
LeftFoot  0.0153506 1.0505e-006 0.15557
LeftToes  -17.4354 1.89912e-006 4.45198e-008
295
root  -32.8393 34.3648 3.39904 -170.238 81.9269 -179.192
RightUpLeg  -10.2788 -8.09164 -1.10963
RightLeg  12.9595 9.12767 1.48617
RightFoot  -0.247733 -0.00119456 0.0490647
RightToes  -31.5145 -0.15638 -0.266087
Spine  -3.00376 -0.554147 0.431061
Spine1  -5.70957 -1.10449 1.56519
HEad  -64.449 -0.857366 10.4964
LeftShoulder1  -1.94126e-019 -3.10601e-018 -2.51263e-017
LeftArm  -32.829 37.7794 -83.1453
LeftForeArm  21.1951 -10.2096 -1.79621
LeftHand  -0.280626 1.62925 8.5326
RightShoulder  -4.96962e-017 0 -2.36833e-017
RightArm  -40.4041 -35.3794 76.3477
RightForeArm  57.8268 9.50802 1.5156
RightHand  -0.210117 -2.40302 -7.81666
LeftUpLeg  -11.532 3.76736 -0.868354
LeftLeg  13.7945 13.4591 2.37522
LeftFoot  0.630211 -0.000776782 0.302838
LeftToes  -17.6375 1.89912e-006 4.45198e-008
296
root  -32.8539 34.4523 3.40101 -170.432 81.6193 -179.424
RightUpLeg  -9.53407 -8.39749 -1.10207
RightLeg  11.3878 9.15204 1.23494
RightFoot  0.517826 0.00115267 0.175337
RightToes  -31.6141 -0.156228 -0.266082
Spine  -2.84563 -0.502803 0.379149
Spine1  -5.55607 -1.00697 1.46258
HEad  -64.2118 -1.01794 10.4101
LeftShoulder1  -1.94126e-019 -3.10601e-018 -2.51263e-017
LeftArm  -30.9605 35.0322 -82.3229
LeftForeArm  21.9751 -11.7764 -2.04037
LeftHand  -0.296979 1.38031 8.50793
RightShoulder  -4.96962e-017 0 -2.36833e-017
RightArm  -35.9156 -33.0363 76.5146
RightForeArm  55.8005 11.2623 1.53293
RightHand  -0.241441 -2.06658 -8.17741
LeftUpLeg  -10.8736 3.62584 -0.875712
LeftLeg  12.207 13.3625 1.98246
LeftFoot  1.45493 -0.00424335 0.495762
LeftToes  -17.7777 1.89912e-006 4.45198e-008
297
root  -32.879 34.5521 3.41113 -170.556 81.3753 -179.536
RightUpLeg  -8.65412 -8.57104 -1.08572
RightLeg  9.56666 9.13252 0.939446
RightFoot  1.4045 0.00178977 0.319784
RightToes  -31.4583 -0.156076 -0.266091
Spine  -2.72528 -0.411895 0.345499
Spine1  -5.4425 -0.810919 1.38635
HEad  -63.8956 -1.12695 10.1138
LeftShoulder1  -1.94126e-019 -3.10601e-018 -2.51263e-017
LeftArm  -28.7172 31.7072 -81.6395
LeftForeArm  22.7974 -12.6563 -2.15453
LeftHand  -0.314728 1.28432 8.82639
RightShoulder  -4.96962e-017 0 -2.36833e-017
RightArm  -31.7164 -30.2948 76.4668
RightForeArm  53.4098 12.6303 1.45035
RightHand  -0.246205 -2.08518 -8.39086
LeftUpLeg  -10.0557 3.55847 -0.859387
LeftLeg  10.3594 13.2398 1.53451
LeftFoot  2.42138 -0.011752 0.717639
LeftToes  -17.8803 1.89912e-006 4.45198e-008
